<mxfile host="app.diagrams.net" agent="Mozilla/5.0 (Windows NT 10.0; Win64; x64) AppleWebKit/537.36 (KHTML, like Gecko) Chrome/131.0.0.0 Safari/537.36" version="24.9.1">
  <diagram name="Page-1" id="5St8_lSBGcsEjdOSe_Oo">
    <mxGraphModel dx="713" dy="354" grid="1" gridSize="10" guides="1" tooltips="1" connect="1" arrows="1" fold="1" page="1" pageScale="1" pageWidth="850" pageHeight="1100" math="0" shadow="0">
      <root>
        <mxCell id="0" />
        <mxCell id="1" parent="0" />
        <mxCell id="yGI71dp5LAuHXJ5P0kga-22" style="edgeStyle=orthogonalEdgeStyle;rounded=0;orthogonalLoop=1;jettySize=auto;html=1;exitX=1;exitY=0.5;exitDx=0;exitDy=0;entryX=0;entryY=0.5;entryDx=0;entryDy=0;" edge="1" parent="1" source="yGI71dp5LAuHXJ5P0kga-1" target="yGI71dp5LAuHXJ5P0kga-5">
          <mxGeometry relative="1" as="geometry" />
        </mxCell>
        <mxCell id="yGI71dp5LAuHXJ5P0kga-23" style="edgeStyle=orthogonalEdgeStyle;rounded=0;orthogonalLoop=1;jettySize=auto;html=1;exitX=1;exitY=0.5;exitDx=0;exitDy=0;entryX=0;entryY=0.5;entryDx=0;entryDy=0;" edge="1" parent="1" source="yGI71dp5LAuHXJ5P0kga-1" target="yGI71dp5LAuHXJ5P0kga-2">
          <mxGeometry relative="1" as="geometry">
            <Array as="points">
              <mxPoint x="160" y="300" />
              <mxPoint x="160" y="220" />
            </Array>
          </mxGeometry>
        </mxCell>
        <mxCell id="yGI71dp5LAuHXJ5P0kga-24" style="edgeStyle=orthogonalEdgeStyle;rounded=0;orthogonalLoop=1;jettySize=auto;html=1;exitX=1;exitY=0.5;exitDx=0;exitDy=0;entryX=0;entryY=0.5;entryDx=0;entryDy=0;" edge="1" parent="1" source="yGI71dp5LAuHXJ5P0kga-1" target="yGI71dp5LAuHXJ5P0kga-4">
          <mxGeometry relative="1" as="geometry">
            <Array as="points">
              <mxPoint x="160" y="300" />
              <mxPoint x="160" y="140" />
            </Array>
          </mxGeometry>
        </mxCell>
        <mxCell id="yGI71dp5LAuHXJ5P0kga-1" value="Start" style="ellipse;whiteSpace=wrap;html=1;aspect=fixed;" vertex="1" parent="1">
          <mxGeometry x="60" y="270" width="60" height="60" as="geometry" />
        </mxCell>
        <mxCell id="yGI71dp5LAuHXJ5P0kga-29" style="edgeStyle=orthogonalEdgeStyle;rounded=0;orthogonalLoop=1;jettySize=auto;html=1;exitX=1;exitY=0.5;exitDx=0;exitDy=0;entryX=0;entryY=0.5;entryDx=0;entryDy=0;" edge="1" parent="1" source="yGI71dp5LAuHXJ5P0kga-2" target="yGI71dp5LAuHXJ5P0kga-25">
          <mxGeometry relative="1" as="geometry" />
        </mxCell>
        <mxCell id="yGI71dp5LAuHXJ5P0kga-2" value="Run MBE&amp;nbsp; to ground truth" style="whiteSpace=wrap;html=1;" vertex="1" parent="1">
          <mxGeometry x="190" y="190" width="120" height="60" as="geometry" />
        </mxCell>
        <mxCell id="yGI71dp5LAuHXJ5P0kga-27" style="edgeStyle=orthogonalEdgeStyle;rounded=0;orthogonalLoop=1;jettySize=auto;html=1;exitX=1;exitY=0.5;exitDx=0;exitDy=0;entryX=0;entryY=0.5;entryDx=0;entryDy=0;" edge="1" parent="1" source="yGI71dp5LAuHXJ5P0kga-4" target="yGI71dp5LAuHXJ5P0kga-25">
          <mxGeometry relative="1" as="geometry">
            <Array as="points">
              <mxPoint x="320" y="140" />
              <mxPoint x="320" y="220" />
            </Array>
          </mxGeometry>
        </mxCell>
        <mxCell id="yGI71dp5LAuHXJ5P0kga-4" value="Run PSNR to template colour checker" style="whiteSpace=wrap;html=1;" vertex="1" parent="1">
          <mxGeometry x="190" y="110" width="120" height="60" as="geometry" />
        </mxCell>
        <mxCell id="yGI71dp5LAuHXJ5P0kga-28" style="edgeStyle=orthogonalEdgeStyle;rounded=0;orthogonalLoop=1;jettySize=auto;html=1;exitX=1;exitY=0.5;exitDx=0;exitDy=0;entryX=0;entryY=0.5;entryDx=0;entryDy=0;" edge="1" parent="1" source="yGI71dp5LAuHXJ5P0kga-5" target="yGI71dp5LAuHXJ5P0kga-25">
          <mxGeometry relative="1" as="geometry">
            <Array as="points">
              <mxPoint x="320" y="300" />
              <mxPoint x="320" y="220" />
            </Array>
          </mxGeometry>
        </mxCell>
        <mxCell id="yGI71dp5LAuHXJ5P0kga-5" value="Run AG on image" style="whiteSpace=wrap;html=1;" vertex="1" parent="1">
          <mxGeometry x="190" y="270" width="120" height="60" as="geometry" />
        </mxCell>
        <mxCell id="yGI71dp5LAuHXJ5P0kga-18" style="edgeStyle=orthogonalEdgeStyle;rounded=0;orthogonalLoop=1;jettySize=auto;html=1;exitX=1;exitY=0.5;exitDx=0;exitDy=0;entryX=0;entryY=0.25;entryDx=0;entryDy=0;" edge="1" parent="1" source="yGI71dp5LAuHXJ5P0kga-8" target="yGI71dp5LAuHXJ5P0kga-2">
          <mxGeometry relative="1" as="geometry" />
        </mxCell>
        <mxCell id="yGI71dp5LAuHXJ5P0kga-19" style="edgeStyle=orthogonalEdgeStyle;rounded=0;orthogonalLoop=1;jettySize=auto;html=1;exitX=1;exitY=0.5;exitDx=0;exitDy=0;entryX=0;entryY=0.25;entryDx=0;entryDy=0;" edge="1" parent="1" source="yGI71dp5LAuHXJ5P0kga-8" target="yGI71dp5LAuHXJ5P0kga-5">
          <mxGeometry relative="1" as="geometry">
            <Array as="points">
              <mxPoint x="180" y="205" />
              <mxPoint x="180" y="285" />
            </Array>
          </mxGeometry>
        </mxCell>
        <mxCell id="yGI71dp5LAuHXJ5P0kga-8" value="Enhanced image" style="shape=parallelogram;perimeter=parallelogramPerimeter;whiteSpace=wrap;html=1;fixedSize=1;" vertex="1" parent="1">
          <mxGeometry x="30" y="190" width="120" height="30" as="geometry" />
        </mxCell>
        <mxCell id="yGI71dp5LAuHXJ5P0kga-16" style="edgeStyle=orthogonalEdgeStyle;rounded=0;orthogonalLoop=1;jettySize=auto;html=1;exitX=1;exitY=0.5;exitDx=0;exitDy=0;entryX=0;entryY=0.25;entryDx=0;entryDy=0;" edge="1" parent="1" source="yGI71dp5LAuHXJ5P0kga-10" target="yGI71dp5LAuHXJ5P0kga-4">
          <mxGeometry relative="1" as="geometry" />
        </mxCell>
        <mxCell id="yGI71dp5LAuHXJ5P0kga-10" value="Enhanced &lt;br&gt;colour checker" style="shape=parallelogram;perimeter=parallelogramPerimeter;whiteSpace=wrap;html=1;fixedSize=1;" vertex="1" parent="1">
          <mxGeometry x="30" y="110" width="120" height="30" as="geometry" />
        </mxCell>
        <mxCell id="yGI71dp5LAuHXJ5P0kga-20" style="edgeStyle=orthogonalEdgeStyle;rounded=0;orthogonalLoop=1;jettySize=auto;html=1;exitX=1;exitY=0.5;exitDx=0;exitDy=0;entryX=0;entryY=0.75;entryDx=0;entryDy=0;" edge="1" parent="1" source="yGI71dp5LAuHXJ5P0kga-14" target="yGI71dp5LAuHXJ5P0kga-2">
          <mxGeometry relative="1" as="geometry">
            <Array as="points">
              <mxPoint x="170" y="245" />
              <mxPoint x="170" y="235" />
            </Array>
          </mxGeometry>
        </mxCell>
        <mxCell id="yGI71dp5LAuHXJ5P0kga-21" style="edgeStyle=orthogonalEdgeStyle;rounded=0;orthogonalLoop=1;jettySize=auto;html=1;exitX=1;exitY=0.5;exitDx=0;exitDy=0;entryX=0;entryY=0.75;entryDx=0;entryDy=0;" edge="1" parent="1" source="yGI71dp5LAuHXJ5P0kga-14" target="yGI71dp5LAuHXJ5P0kga-5">
          <mxGeometry relative="1" as="geometry">
            <Array as="points">
              <mxPoint x="170" y="245" />
              <mxPoint x="170" y="315" />
            </Array>
          </mxGeometry>
        </mxCell>
        <mxCell id="yGI71dp5LAuHXJ5P0kga-14" value="Input image" style="shape=parallelogram;perimeter=parallelogramPerimeter;whiteSpace=wrap;html=1;fixedSize=1;" vertex="1" parent="1">
          <mxGeometry x="30" y="230" width="120" height="30" as="geometry" />
        </mxCell>
        <mxCell id="yGI71dp5LAuHXJ5P0kga-17" style="edgeStyle=orthogonalEdgeStyle;rounded=0;orthogonalLoop=1;jettySize=auto;html=1;exitX=1;exitY=0.5;exitDx=0;exitDy=0;entryX=0;entryY=0.75;entryDx=0;entryDy=0;" edge="1" parent="1" source="yGI71dp5LAuHXJ5P0kga-15" target="yGI71dp5LAuHXJ5P0kga-4">
          <mxGeometry relative="1" as="geometry">
            <Array as="points">
              <mxPoint x="180" y="165" />
              <mxPoint x="180" y="155" />
            </Array>
          </mxGeometry>
        </mxCell>
        <mxCell id="yGI71dp5LAuHXJ5P0kga-15" value="Input image &lt;br&gt;colour checker" style="shape=parallelogram;perimeter=parallelogramPerimeter;whiteSpace=wrap;html=1;fixedSize=1;" vertex="1" parent="1">
          <mxGeometry x="30" y="150" width="120" height="30" as="geometry" />
        </mxCell>
        <mxCell id="yGI71dp5LAuHXJ5P0kga-31" style="edgeStyle=orthogonalEdgeStyle;rounded=0;orthogonalLoop=1;jettySize=auto;html=1;exitX=1;exitY=0.5;exitDx=0;exitDy=0;entryX=0;entryY=0.5;entryDx=0;entryDy=0;" edge="1" parent="1" source="yGI71dp5LAuHXJ5P0kga-25" target="yGI71dp5LAuHXJ5P0kga-26">
          <mxGeometry relative="1" as="geometry" />
        </mxCell>
        <mxCell id="yGI71dp5LAuHXJ5P0kga-25" value="Output&amp;nbsp;&lt;br&gt;results" style="shape=parallelogram;perimeter=parallelogramPerimeter;whiteSpace=wrap;html=1;fixedSize=1;" vertex="1" parent="1">
          <mxGeometry x="335" y="200" width="90" height="40" as="geometry" />
        </mxCell>
        <mxCell id="yGI71dp5LAuHXJ5P0kga-26" value="Stop" style="ellipse;whiteSpace=wrap;html=1;aspect=fixed;" vertex="1" parent="1">
          <mxGeometry x="450" y="190" width="60" height="60" as="geometry" />
        </mxCell>
        <mxCell id="yGI71dp5LAuHXJ5P0kga-32" value="Run PSNR to template colour checker" style="whiteSpace=wrap;html=1;" vertex="1" parent="1">
          <mxGeometry x="190" y="30" width="120" height="60" as="geometry" />
        </mxCell>
      </root>
    </mxGraphModel>
  </diagram>
</mxfile>
